# xmcd
#
# Track frame offsets:
#	150
#	20305
#	62845
#	80205
#
# Disc length: 1410 seconds
#
# Revision: 1
# Processed by: cddbd v1.5.2PL0 Copyright (c) Steve Scherf et al.
# Submitted via: audiograbber 1.83.01
#
DISCID=2d058004
DTITLE=Strike - Inspiration
DYEAR=1996
DGENRE=Blues
TTITLE0=Inspiration (Radio Edit)
TTITLE1=Inspiration (Kaleidoscopic Backdrop)
TTITLE2=U Sure Do (Original Guest List Radio Mix)
TTITLE3=U Sure Do (Tony De Vit's V2 Dub)
EXTD=YEAR: 1996
EXTT0=
EXTT1=
EXTT2=
EXTT3=
PLAYORDER=
